<?xml version="1.0" encoding="utf-8"?>
<!-- Generator: Adobe Illustrator 19.0.0, SVG Export Plug-In . SVG Version: 6.00 Build 0)  -->
<svg version="1.1" id="Capa_1" xmlns="http://www.w3.org/2000/svg" xmlns:xlink="http://www.w3.org/1999/xlink" x="0px" y="0px"
	 viewBox="0 0 747.1 1167.3" style="enable-background:new 0 0 747.1 1167.3;" xml:space="preserve">
<style type="text/css">
	.st0{fill:#D4A42D;}
	.st1{fill:#D5833D;}
	.st2{fill:#FFFFFF;}
	.st3{font-family:'TradeGothicLTStd-BdCn20';}
	.st4{font-size:39.9357px;}
	.st5{letter-spacing:7;}
	.st6{fill:#1A9892;}
	.st7{font-family:'TradeGothicLTStd-Bold';}
	.st8{font-size:13.8711px;}
	.st9{letter-spacing:1;}
	.st10{fill:#1A9892;stroke:#1A9892;stroke-width:0.75;stroke-miterlimit:10;}
	.st11{letter-spacing:2;}
	.st12{font-size:22.8694px;}
	.st13{letter-spacing:4;}
	.st14{fill:#257286;}
	.st15{font-size:27px;}
	.st16{fill:#5B5B5F;}
	.st17{font-size:13.7537px;}
	.st18{fill:#2E374E;}
	.st19{fill:#C67434;}
	.st20{fill:#AEC1D7;}
	.st21{fill:#00463B;}
	.st22{fill:#D0741E;}
	.st23{fill:#A82C2D;}
	.st24{fill:#9B5628;}
	.st25{fill:#9DA9BB;}
	.st26{fill:#E5C74B;}
	.st27{fill:#050306;}
	.st28{fill:#C9B239;}
	.st29{fill:#150F0F;}
	.st30{fill:#F4F4F4;}
	.st31{fill:#EAE9D1;}
	.st32{fill:#D4D2BA;}
	.st33{fill:#CDB333;}
	.st34{fill:#99C3C5;}
	.st35{fill:#33384B;}
	.st36{fill:#272A36;}
	.st37{fill:#063426;}
	.st38{fill:#8F191D;}
	.st39{fill:#6185A7;}
	.st40{fill:#130E0F;}
	.st41{fill:#782423;}
	.st42{fill:#1D150F;}
	.st43{fill:#9A3736;}
	.st44{fill:#2E2212;}
	.st45{fill:#0B080B;}
	.st46{fill:#093577;}
	.st47{fill:#E8BD6E;}
	.st48{fill:#C44246;}
	.st49{fill:#D1819F;}
	.st50{fill:none;stroke:#090509;stroke-width:1.0416;stroke-miterlimit:10;}
	.st51{fill:#090509;}
	.st52{fill:#EAE6AA;}
	.st53{fill:#DFC547;}
	.st54{fill:#E1A731;}
	.st55{fill:#257286;stroke:#1A9892;stroke-miterlimit:10;}
	.st56{font-size:38.7718px;}
	.st57{fill:#257286;stroke:#257286;stroke-miterlimit:10;}
	.st58{font-size:31px;}
	.st59{letter-spacing:6;}
	.st60{font-size:20.731px;}
	.st61{opacity:0.27;}
	.st62{font-size:11px;}
	.st63{font-size:43.942px;}
	.st64{letter-spacing:8;}
	.st65{fill:#F7F7F8;}
	.st66{font-size:13.0135px;}
	.st67{font-size:16.333px;}
</style>
<rect id="XMLID_10_" x="157.4" y="513.8" class="st0" width="431.8" height="25.5"/>
<rect id="XMLID_21_" x="157.4" y="298" class="st1" width="432.2" height="46"/>
<text id="XMLID_17_" transform="matrix(1 0 0 1 161.5219 338.3463)" class="st2 st3 st4 st5">133 681 REUNIONES</text>
<text id="XMLID_28_" transform="matrix(1 0 0 1 83.101 424.0078)" class="st6 st7 st8 st9">706 872 (Cuba)</text>
<g id="XMLID_30_">
	<text id="XMLID_249_" transform="matrix(1 0 0 1 146.392 455.8564)" class="st10 st7 st8 st11">INTERVENCIONES</text>
</g>
<g id="XMLID_38_">
	<text id="XMLID_251_" transform="matrix(1 0 0 1 474.8429 454.6563)" class="st10 st7 st8 st11">PROPUESTAS TIPO</text>
</g>
<text id="XMLID_82_" transform="matrix(1 0 0 1 299.7006 685.7028)" class="st0 st7 st12 st13">ARTÍCULOS</text>
<text id="XMLID_29_" transform="matrix(1 0 0 1 243.6557 424.0078)" class="st6 st7 st8 st9">2 125 (Extranjero)</text>
<g id="XMLID_89_">
	<text id="XMLID_253_" transform="matrix(1 0 0 1 575.1727 423.1903)" class="st6 st7 st8 st9">978 (Extranjero)</text>
</g>
<polygon id="XMLID_20_" class="st1" points="230.1,369.4 215.3,395.2 200.4,369.4 "/>
<polygon id="XMLID_83_" class="st0" points="268.3,671.6 233.1,651.3 268.3,631 "/>
<polygon id="XMLID_84_" class="st0" points="392.5,715.3 372.2,750.5 351.9,715.3 "/>
<polygon id="XMLID_5_" class="st14" points="267.8,822.3 232.4,801.9 267.8,781.5 "/>
<polygon id="XMLID_6_" class="st14" points="471.3,781.5 506.7,801.9 471.3,822.3 "/>
<polygon id="XMLID_85_" class="st0" points="470.8,631 505.9,651.3 470.8,671.6 "/>
<polygon id="XMLID_33_" class="st1" points="562.8,367.1 548,392.8 533.1,367.1 "/>
<rect id="XMLID_27_" x="213.6" y="407.9" class="st6" width="4" height="16.1"/>
<rect id="XMLID_32_" x="207.5" y="414" class="st6" width="16.1" height="4"/>
<g id="XMLID_37_">
	<text id="XMLID_254_" transform="matrix(1 0 0 1 432.1285 423.1903)" class="st6 st7 st8 st9">9 595 (Cuba)</text>
</g>
<text id="XMLID_36_" transform="matrix(1 0 0 1 298.5997 854.0801)" class="st14 st7 st15 st9">modificados</text>
<text id="XMLID_95_" transform="matrix(1 0 0 1 95.8315 837.282)"><tspan x="0" y="0" class="st16 st7 st17">cambios de redacción</tspan><tspan x="7.6" y="16.5" class="st16 st7 st17"> y estilo, mejora el </tspan><tspan x="-5.2" y="33" class="st16 st7 st17">contenido existente sin </tspan><tspan x="10.1" y="49.5" class="st16 st7 st17">cambiar el sentido</tspan></text>
<g id="XMLID_2_">
	<text id="XMLID_243_" transform="matrix(1 0 0 1 557.1088 833.0797)"><tspan x="0" y="0" class="st16 st7 st17">cambios </tspan><tspan x="-18.4" y="16.5" class="st16 st7 st17">representativos</tspan></text>
</g>
<rect id="XMLID_35_" x="546.9" y="407.5" class="st6" width="3.9" height="15.7"/>
<rect id="XMLID_34_" x="541" y="413.4" class="st6" width="15.7" height="3.9"/>
<g id="XMLID_141_">
	<path id="XMLID_4182_" class="st18" d="M471.6,255.6c-1.5,0.2-2.9,0.2-4.4,0.3c-1.1,0-2.6,0.3-2.8,1.4c-0.2,0.7,0.2,1.3,0.8,1.7
		c0.5,0.4,1.2,0.5,1.9,0.7c4.3,0.9,8.6,1.2,12.9,0.8c0.2,0,0.4,0,0.6-0.1c0.4-0.2,0.4-0.7,0.5-1.1c0.2-2.3,0.8-4.6-2-4.8
		C476.8,254.2,473.9,255.4,471.6,255.6z"/>
	<path id="XMLID_23_" class="st18" d="M465.3,255.6c-1.5,0.2-2.9,0.2-4.4,0.3c-1.1,0-2.6,0.3-2.8,1.4c-0.2,0.7,0.2,1.3,0.8,1.7
		c0.5,0.4,1.2,0.5,1.9,0.7c4.3,0.9,8.6,1.2,12.9,0.8c0.2,0,0.4,0,0.6-0.1c0.4-0.2,0.4-0.7,0.5-1.1c0.2-2.3,0.8-4.6-2-4.8
		C470.4,254.2,467.5,255.4,465.3,255.6z"/>
	<g id="XMLID_16_">
		<g id="XMLID_3550_">
			<g id="XMLID_3537_">
				<path id="XMLID_3293_" class="st19" d="M302.5,175.8l-5.5,27.7l1.9,36.5c0,0-15.3,2.2-14.9,0c0.4-2.2,9.2-3.6,9.2-3.6l-2.3-32.8
					l-4.3-29.2L302.5,175.8z"/>
				<path id="XMLID_3539_" class="st19" d="M315.6,175.9l-5.5,29.4l1.9,38.7c0,0-15.3,2.3-14.9,0c0.4-2.3,9.2-3.9,9.2-3.9l-2.3-34.8
					l-4.3-31L315.6,175.9z"/>
				<path id="XMLID_3535_" class="st19" d="M284.1,123.2l-2.7,22.4l-10.9,19.7c0,0-3.8,1.6-4.1,3.6c-0.3,1.9,4.1,8.5,6.8,3.8
					c2.7-4.7,2-7.1,2-7.1l10.7-18.3l5.2-24.1H284.1z"/>
				<polyline id="XMLID_3538_" class="st19" points="312.6,118.9 321.1,144.8 306.6,160.2 304.4,158.7 314.9,145.1 306.9,121.1 				
					"/>
				<path id="XMLID_3533_" class="st20" d="M284.8,113.7c0,0-4.9,12.6,5.1,13.3l2.5,16.1l12.1-0.5l9.6-28.9l-15.6-1.4L284.8,113.7z"
					/>
				<path id="XMLID_3536_" class="st21" d="M310.2,95.1c-0.9,0-1.7,0.1-2.5,0.4c-0.6-9.1-6.3-16.2-13.3-16.2
					c-7.4,0-13.4,7.9-13.4,17.7c0,2.1,0.3,4.1,0.8,5.9c-1.6,1.5-2.7,3.7-2.7,6.3c0,4.5,3.2,8.1,7.2,8.1c2.2,0,4.2-1.2,5.5-3
					c0.8,0.2,1.7,0.3,2.6,0.3c2.2,0,4.3-0.7,6.1-2c1.5,4.9,5.3,8.4,9.7,8.4c5.7,0,10.4-5.8,10.4-13C320.5,101,315.9,95.1,310.2,95.1
					z"/>
				<path id="XMLID_3532_" class="st22" d="M292.3,107l2,10.5c0.4,1.4,0.8,1.6,2.6-0.1l0.8-11.4L292.3,107z"/>
				<path id="XMLID_3534_" class="st19" d="M300.1,96.6c-0.2,0-0.5,0.1-0.7,0.2c-4.6-2.1-3.4-5-5.9-4.8c-3.4,0.2-5.8,4.2-5.5,8.9
					c0.3,4.7,3.3,8.3,6.6,8.1c3.4-0.2,5.8-4.2,5.5-8.9c0,0,0,0,0,0c0.1,0,0.1,0,0.2,0c1-0.1,1.8-0.9,1.8-1.8
					C302.1,97.3,301.2,96.5,300.1,96.6z"/>
				<path id="XMLID_3531_" class="st23" d="M290.3,143.4c0,0-9.7,18.1-5.8,40.4h33.6c0,0-0.1-37.7-14.2-41.2L290.3,143.4z"/>
				<path id="XMLID_3548_" class="st19" d="M241.8,172.9l3.5,33.8l-0.6,36.5c0,0,15.3,1.6,14.9-0.5s-9.4-3.3-9.4-3.3l1.2-32.9
					l3.3-29.4L241.8,172.9z"/>
				<path id="XMLID_3547_" class="st19" d="M229.2,174.5l3.2,40l-0.3,45.7c0,0,15.3,2.2,14.9-0.5c-0.4-2.7-9.4-4.2-9.4-4.2l0.9-41.1
					l3-36.7L229.2,174.5z"/>
				<path id="XMLID_3546_" class="st19" d="M255.2,126l3.5,22.3l11.6,19.3c0,0,3.9,1.5,4.2,3.4c0.3,1.9-3.8,8.6-6.7,4.1
					s-2.3-7-2.3-7l-11.4-17.9l-6-23.9L255.2,126z"/>
				<polyline id="XMLID_3545_" class="st19" points="226.6,122.8 219,148.9 234.1,163.8 236.2,162.3 225.3,149 232.4,124.8 				"/>
				<path id="XMLID_3544_" class="st24" d="M254.5,118.3c0,0,5.4,14.5-4.6,15.6l-1.8,18.8l-12.1-0.2l-10.7-33.2l15.5-2.1
					L254.5,118.3z"/>
				<path id="XMLID_3540_" class="st25" d="M249.8,147.3c0,0,11,36.6,8.7,82.5l-14.8,0.5l-2.3-54.9l-1.4,55l-15,0.5
					c0,0-2.7-77.2,11.2-84.9L249.8,147.3z"/>
				<path id="XMLID_3543_" class="st26" d="M226.9,109.1c0.9-0.1,1.8-9.5,2.6-9.3c-0.2-9.1,5-16.7,12-17.3c7.4-0.6,14,6.8,14.8,16.5
					c0.2,2.1,0,4.1-0.3,6c1.7,1.4,3,3.5,3.2,6.1c0.4,4.5-0.7,27.7-4.7,28c-2.2,0.2-6.1-20.1-7.5-21.8c-0.8,0.3-6.7,0.2-7.5,0.3
					c-2.2,0.2,0.7,50.8-1.3,49.7c-1.1,5-0.4-12.2-4.8-11.8c-5.7,0.5-7.2-4.2-7.8-11.3C225,136.9,221.2,109.5,226.9,109.1z"/>
				<path id="XMLID_3542_" class="st22" d="M246,109.9l-1.4,9.7c-0.3,1.3-0.7,1.5-2.8,0.2l-1.7-10.3L246,109.9z"/>
				<path id="XMLID_3541_" class="st19" d="M236.5,98.8c0.3,0,0.5,0,0.7,0.1c4.6-2.6,5.8-5.6,5.8-5.6c2.4,6,6.5,3.9,6.6,8.8
					c0.1,4.9-2.7,9-6.3,9.1c-3.5,0.1-6.5-3.9-6.6-8.8c0,0,0,0,0,0c-0.1,0-0.1,0-0.2,0c-1.1,0-2-0.8-2-1.8
					C234.5,99.6,235.4,98.8,236.5,98.8z"/>
			</g>
			<path id="XMLID_3549_" class="st25" d="M232.1,257.9c0,0,6.5,1.1,7.9,0.6c1.3-0.5,3.2-1.7,3.2-1.7s4.8,1.8,3.9,2.8
				c-1,1-3.9,3.3-14.9,0.5L232.1,257.9z"/>
			<path id="XMLID_3551_" class="st25" d="M244.5,241.8c0,0,7.1,1.1,8.5,0.6s3.4-1.7,3.4-1.7s5.2,1.8,4.2,2.8s-4.3,3.3-16.1,0.5
				L244.5,241.8z"/>
			<path id="XMLID_3552_" class="st26" d="M299,238.3c0,0-6.8,1.1-8.2,0.6c-1.4-0.5-3.3-1.7-3.3-1.7s-5,1.8-4,2.8s4.1,3.2,15.5,0.5
				L299,238.3z"/>
			<path id="XMLID_3553_" class="st26" d="M312.3,242.8c0,0-7.1,1.1-8.5,0.6c-1.4-0.5-3.4-1.5-3.4-1.5s-5.2,1.7-4.2,2.6
				c1,0.9,4.3,3,16.1,0.5L312.3,242.8z"/>
		</g>
		<g id="XMLID_3526_">
			<path id="XMLID_3528_" class="st27" d="M189.7,258c0,0,11.5,2.2,11.1,4.7c-0.4,2.5-18.1,1.4-18.1,1.4s-1.9-2,0.4-6.5
				S189.7,258,189.7,258z"/>
			<polygon id="XMLID_3527_" class="st28" points="181.7,192.4 180.2,257.5 194.1,258.3 195.4,190.3 			"/>
			<path id="XMLID_3565_" class="st21" d="M201.6,89.5c-1.4-1.3-15.7-3.3-17.6,2.2c-0.9,2.7-0.3,7,0.5,10.6c5.2-4.5,3.6-8.8,3.6-8.8
				c1.2,0.1,2.7-0.1,4.2-0.4l0,0l1.6-0.3l0.2-0.1c4-0.9,7.9-2.4,7.9-2.4C202,90,201.8,89.8,201.6,89.5z"/>
			<path id="XMLID_3564_" class="st19" d="M184.6,102.3L184.6,102.3c0.6,2.6,1.3,4.8,1.7,5.9l12.7,3.5l-0.6-8.6
				c-2.7,0.5-6.6-3.2-6.6-3.2l0.7-6.8c-1.6,0.3-3.1,0.5-4.2,0.4C188.2,93.5,189.7,97.8,184.6,102.3z"/>
			<path id="XMLID_3563_" class="st21" d="M192.4,93.1l-0.7,6.8c0,0,6.4,10.6,9.1,10.2c0,0-0.3,0-0.3,0c2.7-0.5,3.2-8.5,3.5-10.8
				c0,0-7-2.8-8.4-1.3l-1.5-5.2l-0.2,0.1C193.5,92.9,193,93,192.4,93.1z"/>
			<path id="XMLID_3562_" class="st19" d="M194.2,92.7l1.5,5.2c1.3-1.4,8.4,1.3,8.4,1.3l-0.5-2.6L205,95l-2.5-1.7c0,0,0.3-1.7-0.3-3
				C202.2,90.3,198.2,91.8,194.2,92.7z"/>
			<path id="XMLID_3525_" class="st29" d="M207.6,246.3c0,0,11.6,1.3,11.3,3.4c-0.3,2.1-18,2-18,2s-2-1.5,0-5.4
				S207.6,246.3,207.6,246.3z"/>
			<polygon id="XMLID_3524_" class="st28" points="196.2,192.4 200.4,216.8 198.2,246.3 212.1,246.3 213.8,212.2 209.7,190.1 			"/>
			<polyline id="XMLID_3523_" class="st2" points="186.2,108.2 177.3,111.7 179.1,200.9 215.7,200.9 206.6,116.1 200.9,111.7 			"/>
			<path id="XMLID_3522_" class="st30" d="M187,117v20l21.8,30.6l16.6,3.3v-6.6l-12.7-5.1l-13-22.3l-0.7-20
				C198.9,117,192.1,113.8,187,117z"/>
		</g>
		<g id="XMLID_4207_">
			<polyline id="XMLID_3555_" class="st31" points="333.2,77.9 328.3,67.5 338.7,62.4 347.5,55.7 355.2,75.1 347.5,79.1 341.9,84.6 
							"/>
			<polygon id="XMLID_3530_" class="st32" points="338.1,62.7 346.8,79.8 355.2,75.1 347.5,55.7 			"/>
			<g id="XMLID_3554_">
				<path id="XMLID_4135_" class="st21" d="M415.3,132.4c2.4,26.2,3,27.1,0,27.1c-2.5,0-8.1-3.6-10.1-4.9l-0.8-10.7V133
					c0,0-1.8-4.9-2.1-0.9c-0.1,1.3-0.8,5.3-1.9,9.9h0l-2.5,8.9v0c-2.1,6.2-4.7,11.6-7.4,11.6c-1.8,0-6.5-1-12.2-2.4l-0.3-0.1
					l-33.5-9l-0.3-0.1c0,0-7-0.9-4-11c1.1-3.7,3.5-9.7,6.2-15.8l0.5,2.9h3.2l-1.5-8.1c3.9-8.8,7.6-16.7,7.6-16.7s0.6-2.3-1.8-1.8
					c0,0-3.1,4.6-7.4,9.6l-3.1-17.4c0.7-0.6,1.2-1,1.4-1c1.5-0.3,32.6,4.4,32.6,4.4l11.2,4.4c0,0,0.2-0.2,0.7-0.5l1.5,0.5
					C391.2,100.5,412.8,106.3,415.3,132.4z"/>
				<path id="XMLID_4134_" class="st33" d="M405.1,154.6l-7.4-3.6v0c1-2.9,1.8-6.1,2.5-8.9l4,1.8V154
					C404.3,154,404.6,154.2,405.1,154.6z"/>
				<path id="XMLID_4133_" class="st34" d="M386.6,196.4l17,62.1h-2.2h-3.7h-3.9l-35.3-89.2c-4.5,6.9-7.3,89.2-7.3,89.2l-7.2-2
					c-7.6-33.7,0-105.5,0-105.5l0.3,0.1c2.4,0.7,20.5,5.9,33.5,9l0.3,0.1l8.8,2.4L386.6,196.4z"/>
				<polygon id="XMLID_4132_" class="st35" points="401.4,258.5 401.4,262.3 390.9,264.8 395.5,262.3 397.7,258.5 				"/>
				<path id="XMLID_4131_" class="st21" d="M387.4,77c1.8-0.3,14.1,5.6,12.8,11c-0.7,2.6-3.4,5.7-6,8.2c-1.8-6.3,1.8-8.9,1.8-8.9
					c-1-0.5-2.1-1.5-3.2-2.5v0l-1.1-1.1l-0.1-0.1c-2.7-2.8-5-6.1-5-6.1C386.8,77.2,387.1,77.1,387.4,77z"/>
				<path id="XMLID_4130_" class="st25" d="M394.2,96.2L394.2,96.2c-1.8,1.7-3.6,3.1-4.5,3.8l-11.9-3.9l5-6.5
					c1.9,1.8,6.9,0.9,6.9,0.9l3-5.7c1.1,1.1,2.2,2,3.2,2.5C395.9,87.2,392.4,89.9,394.2,96.2z"/>
				<path id="XMLID_4129_" class="st21" d="M392.8,84.7l-3,5.7c0,0-5,0.9-6.9-0.9c0,0,0,0,0,0c-1.9-1.8-3.5-4.1-2.5-6.1
					c0,0,7,1.5,7.3,3.3l3.9-3.3l0.1,0.1C392.1,84,392.4,84.3,392.8,84.7z"/>
				<path id="XMLID_4128_" class="st25" d="M391.6,83.4l-3.9,3.3c-0.3-1.8-7.3-3.3-7.3-3.3l1.8-1.8l-0.3-2h2.9c0,0,0.6-1.5,1.8-2.3
					C386.5,77.4,388.9,80.6,391.6,83.4z"/>
				<polygon id="XMLID_4127_" class="st35" points="351.3,258.5 350.1,262.3 336.5,262.3 344.1,259.9 344.1,256.4 				"/>
				<path id="XMLID_4126_" class="st21" d="M348.6,119l1.5,8.1h-3.2l-0.5-2.9C347.1,122.5,347.8,120.7,348.6,119z"/>
				<path id="XMLID_4124_" class="st21" d="M343.9,92.7l3.1,17.4c-0.8,1-1.7,2-2.7,3l-3.2-17.9C342.2,94.2,343.1,93.3,343.9,92.7z"
					/>
				<path id="XMLID_3608_" class="st21" d="M341.2,95.2l3.2,17.9c-4.6,5-10.1,9.7-14.7,10.2c-10.2,1.2-8.4-10.3-8.4-10.3l9.7-7
					C331,105.9,336.9,99.5,341.2,95.2z"/>
				<path id="XMLID_3606_" class="st25" d="M343.8,73.9l-2.6,3.9l-1.4-7.7C342.1,70.5,343.8,73.9,343.8,73.9z"/>
				<path id="XMLID_3605_" class="st25" d="M339.8,70.1l1.4,7.7l-2.4,3.7L337,71.4c0.3-0.4,0.7-0.7,1-0.9
					C338.6,70.1,339.2,70,339.8,70.1z"/>
				<path id="XMLID_3603_" class="st25" d="M337,71.4l1.8,10.1l-2.1,3.2l-4.1-1.8v0C332.6,82.9,334.4,74.5,337,71.4z"/>
				<path id="XMLID_3602_" class="st33" d="M338,85.3l-7,20.7l-9.7,7c0,0,0-10,9.7-30.7l1.6,0.7l4.1,1.8L338,85.3z"/>
				<path id="XMLID_16304_" class="st36" d="M385.3,158.1l1,3.9l4,0.5v-6.6C390.3,155.9,387.7,157.9,385.3,158.1z"/>
			</g>
		</g>
		<g id="XMLID_3595_">
			<g id="XMLID_3591_">
				<path id="XMLID_3558_" class="st19" d="M274.8,232.2l0.9,14.4c0,0-6.7,1.2-3.9,2.1c2.8,0.9,6.9,0,6.9,0l1.4-18"/>
				<path id="XMLID_3586_" class="st19" d="M298.3,232.2l0.9,14.4c0,0-6.7,1.2-3.9,2.1c2.8,0.9,6.9,0,6.9,0l1.4-18"/>
				<path id="XMLID_3593_" class="st37" d="M299.2,245.1l3.4,0.2c0,0-0.4,4-0.2,3.8c0.1-0.2-6.1,1.2-7.2,0c-1.2-1.2,0-1.9,0-1.9
					l3.5-0.5L299.2,245.1z"/>
				<g id="XMLID_3557_">
					<path id="XMLID_3590_" class="st21" d="M280.3,161.1c1-1.3,12.5-3.6,14.6,1.3c1,2.4,0.9,6.4,0.6,9.7c-4.7-3.9-3.8-7.9-3.8-7.9
						c-0.9,0.1-2.2,0-3.5-0.2l0,0l-1.3-0.2l-0.2,0c-3.4-0.7-6.9-0.6-6.9-0.6C279.8,162.9,280.1,161.3,280.3,161.1z"/>
					<path id="XMLID_3589_" class="st19" d="M295.4,172.1L295.4,172.1c-0.2,2.3-0.6,4.4-0.8,5.5l-10,3.6l-0.3-7.9
						c2.3,0.3,5.1-3.2,5.1-3.2l-1.3-6.1c1.3,0.2,2.6,0.3,3.5,0.2C291.6,164.2,290.8,168.2,295.4,172.1z"/>
					<path id="XMLID_3588_" class="st19" d="M288.1,164l1.3,6.1c0,0-2.8,3.5-5.1,3.2c0,0,0,0,0,0c-2.3-0.3-4.6-1.2-5-3.3
						c0,0,5.5-2.8,6.7-1.5l0.7-4.8l0.2,0C287.2,163.8,287.7,163.9,288.1,164z"/>
					<path id="XMLID_3587_" class="st19" d="M286.6,163.7l-0.7,4.8c-1.2-1.3-6.7,1.5-6.7,1.5l0.1-2.4l-1.3-1.4l1.9-1.6
						c0,0-0.6-0.2-0.2-1.5C279.7,163.1,283.2,163,286.6,163.7z"/>
					<polyline id="XMLID_3556_" class="st19" points="309.1,202.5 299.8,196 299.3,204 310.7,206.8 309.4,202.5 					"/>
					<path id="XMLID_3592_" class="st38" d="M305.6,232.1l1.5,9.5L305.6,232.1l-10.5,0.3l0,0l-7.7-15.8c-3.8,6.7-5.1,14.4-5.1,14.4
						l-9.8,1.8c-2.3-11.3,1.9-24.5,1.9-24.5l0.3,0.9c2,0.7,13.9-6,25-2.9l0.3,0.1l2.5,0.1L305.6,232.1z"/>
					<path id="XMLID_3585_" class="st21" d="M279.2,187.5l1,6.2H278l-0.3-2.2C278.2,190.2,278.7,188.8,279.2,187.5z"/>
					<path id="XMLID_3594_" class="st2" d="M310.6,187.3c4.1,12.4,5.6,12.7,4,13.4c-1.3,0.5-4.8-0.1-6.1-0.3l-2.2-6.4l-1.4-4.1
						c0,0-1.7-2-1.3,0c0.1,0.7,0.4,2.8,0.4,5.3l0,0l0,4.9l0,0c-0.2,3.5-0.8,6.7-2.2,7.2c-0.9,0.4-3.6,0.9-6.8,1.4l-0.2,0l-19.1,2.5
						l-0.1,0c0,0-3.9,1-3.7-4.6c0-2,0.5-5.5,1-9.1l0,0l0,0l0,0c0.8-5.2,2-12.9,2-12.9s1.2-0.7,0,0c0,0-1.3,3.2-3.8,5.8l-4.9-5.5
						c0.3-0.4,0.5-0.7,2.1-2.5c2-1.3,17-5.3,17-5.3l0.3,0c0,0-0.3,0,6.6-0.5l0.9-0.1C293.1,176.6,306.4,174.6,310.6,187.3z"/>
					<path id="XMLID_3583_" class="st19" d="M267,185.6l3.3,4.1c-1.5,4-3.1,13-5.4,14.3c-5.2,2.9-6.4-4.5-6.4-4.5l3.9-6.3
						C262.4,193.2,265.5,189,267,185.6z"/>
					<path id="XMLID_3582_" class="st19" d="M263.2,171.2l-0.6,2.9l-2.2-4.3C261.7,169.6,263.2,171.2,263.2,171.2z"/>
					<path id="XMLID_3581_" class="st19" d="M260.4,169.8l2.2,4.3l-0.6,2.8l-2.8-5.7c0.1-0.3,0.2-0.6,0.4-0.8
						C259.8,170,260.1,169.8,260.4,169.8z"/>
					<path id="XMLID_3580_" class="st19" d="M259.1,171.1l2.8,5.7l-0.5,2.4L259,179l0,0C259,179,258.3,173.6,259.1,171.1z"/>
					<path id="XMLID_3579_" class="st19" d="M261.5,179.2l1,14l-3.9,6.3c0,0-0.9-6,0.4-20.5l0,0L261.5,179.2L261.5,179.2z"/>
					<path id="XMLID_3567_" class="st39" d="M281,193.1c0,0-0.2-8.4,6.6-8.8c6.7-0.4,8.3,0.2,10.2,4.2s2.9,12.2,2.9,12.2l-19.9,1.8
						L281,193.1z"/>
					<path id="XMLID_3566_" class="st33" d="M297.7,214.3l-11.3,0.9c-4,0.3-7.4-3.1-7.7-7.6v0c-0.3-4.5,2.7-8.4,6.7-8.7l11.3-0.9
						c4-0.3,7.4,3.1,7.7,7.6v0C304.7,210.1,301.7,214,297.7,214.3z"/>
					<polygon id="XMLID_3561_" class="st33" points="278.8,178.8 283.1,186.5 286.1,185.2 283.8,177.7 					"/>
					<path id="XMLID_3560_" class="st33" d="M293.8,184.5l2.2-7.2c0,0,1.6,0.2,3,0.7c1.5,0.5-3.1,9.6-3.1,9.6L293.8,184.5z"/>
					<path id="XMLID_3559_" class="st39" d="M294.6,210.3l-5.9,0.4c-1.4,0.1-2.7-1.2-2.7-2.8l-0.1-2.9c-0.1-1.6,1-3,2.5-3.1l5.9-0.4
						c1.4-0.1,2.7,1.2,2.7,2.8l0.1,2.9C297.1,208.8,296,210.2,294.6,210.3z"/>
					<path id="XMLID_3596_" class="st19" d="M306.3,194l5.9-2.2l5.6,14.2c0,0,0.4,1.9-1.8,1.7s-6.3-1.2-6.3-1.2l-2-3.4l1.2-0.7
						L306.3,194z"/>
				</g>
			</g>
			<path id="XMLID_3584_" class="st37" d="M275.7,244.8l3.5,0.2c0,0-0.4,4.1-0.2,3.9c0.1-0.2-6.3,1.3-7.5,0s0-2,0-2l3.6-0.6
				L275.7,244.8z"/>
		</g>
		<path id="XMLID_4183_" class="st40" d="M480.4,166.2l-4.4,89.3c0,0,3.5,2,3.8,1.1c15.9-55.6,22.8-108.2,22-107.7
			S480.4,166.2,480.4,166.2z"/>
		<path id="XMLID_4181_" class="st41" d="M479.5,179.4c0,0,0-0.1,0-0.1c0.1-1.9,0.4-18.7,1-19.2c0.6-0.5,21.8-8.9,21.8-8.9
			l-5.1,27.4"/>
		<path id="XMLID_24_" class="st42" d="M474,166.2l-4.4,89.3c0,0,3.5,2,3.8,1.1c15.9-55.6,22.8-108.2,22-107.7S474,166.2,474,166.2z
			"/>
		<path id="XMLID_22_" class="st43" d="M473.2,180c0,0,0-0.1,0-0.1c0.1-1.9,0.4-19.2,1-19.7c0.6-0.6,22.1-9.1,22.1-9.1l-5.2,28.2"/>
		<path id="XMLID_4158_" class="st44" d="M481.8,87.3c-1.2-1.5,0.2-4.7-0.9-6.3c-1.3-1.8-5.3-1.6-7.4-2.1c-0.9-0.2-1.8-0.4-2.7-0.2
			c-1.2,0.2-2.2,1-3.1,1.9c-1.6,1.6-2.9,3.5-3.9,5.5c0.7,0.1,1.3,0.2,2,0.3c-0.4,1.9-0.8,3.7-0.7,5.6c0.2,1.9,1,3.8,2.7,4.8
			c1.7,1,3.9,0.8,5.7-0.1c1.7-1,3-2.6,4-4.3c0.8,4.6,1.3,11.4,3.5,12.3c0.2,0.1,0.3,0.1,0.5,0.1c1-0.2,2.2-4,1.7-4.9
			C482.4,98.6,482.9,88.7,481.8,87.3z"/>
		<path id="XMLID_4157_" class="st45" d="M465.9,75.5c1.5-0.4,3.1,0.7,3.3,2.2c1.3-1.4,2.7-2.9,4.6-3.1c1.9-0.2,4,1.7,3.2,3.4
			c1.3-0.5,2.7-0.8,4.1-0.6c1.4,0.2,2.7,1.1,3.2,2.4c0.4,1.2,0.1,2.6-0.6,3.7c-0.7,1.1-1.6,2-2.4,3c-2.1,2.6-3.5,5.7-4.9,8.7
			c-0.8,1.8-1.8,3.7-3.6,4.4c-1.2,0.5-2.5,0.3-3.7,0c-1.4-0.4-2.9-1-3.8-2.1c-1-1.1-1.4-2.8-0.8-4.1c0.6-1.3,2.5-2,3.7-1.2
			c0.2-0.8-0.4-1.6-1.1-1.9c-0.7-0.3-1.6-0.2-2.4-0.2c-0.1-1.5,2.1-1.9,3.4-1.2c1.3,0.7,2.3,2,3.7,2.3c2.3,0.6,4.4-1.6,5.6-3.7
			c1.3-0.4,2.6-1,3.3-2.2c0.6-1.2-0.1-3.1-1.5-3c-0.7,0-1.3,0.6-1.8,1.1c-0.8,0.8-1.6,1.6-2.4,2.4c-0.4,0.3-8.3-3.5-9.2-4.1
			C463.9,80.4,462.3,76.4,465.9,75.5z"/>
		<path id="XMLID_3599_" class="st46" d="M477.6,99.9c1.6,2.1-1.4,2.7-2.4,6.6c-0.6,2.6,2.1,11,0.3,12.9c1.4,2.3,6.1,1.5,9.3-0.5
			c1-0.6-4.4,1.7-3.3,2.2c2.1,0.9-2-2.2-0.4-3.8c1.7,14.9-2.2,17.3-6.1,31.7c-1.6,6,0,19.5-1.1,15.7c3.1,8.3,23.7,1.3,26.6-4.9
			c2.9-6.3,1.3-7.7,1.3-14.6c0-21.2-4.2-29.9-15.8-47.6c-1.1-1.7-2.4-3-3.8-1.5c-0.3,0.4-1.1,1.1-1.7,1.4
			C474.7,100.9,477.8,100,477.6,99.9z"/>
		<g id="XMLID_4185_">
			<path id="XMLID_4202_" class="st18" d="M416.1,127.4c1,0.2,0.1,0.6,0.3,0.9c1.7,1.8,3.6,2.7,6,3.2c6.3,1.4,12.9,1.5,19.3,0.4
				c2.3-0.4,4.6-1,6.4-2.4c1.8-1.4,3.1-3.8,2.5-6.1c-0.8-3.2-4.6-4.8-5.6-7.9c-0.6-1.8-0.1-3.8,0.8-5.5c0.5-1.1,1.2-2.1,1.3-3.3
				c0.1-0.7-0.1-1.5-0.3-2.2c-1.4-4.4-4.9-8-9.3-9.3c-7.4-2.4-19.5,4.4-22.2,11.7c-0.9,2.5-0.6,5.5,1.1,7.5c1,1.2,2.6,2.4,2.3,4
				c-0.3,1.7-2.3,2.3-3.5,3.5c-0.9,1,0,3.9,0.6,5.7c0.2,0.6,2.4-1.6,3.1-1.8c1.3-0.5,2.6-0.9,3.9-1.3c5.2-1.4,10.6-1.7,16-1.9
				c4.3-0.2,8.9-0.4,12.8,1.4c3.9,1.8,7.1,6.2,5.9,10.4c-1.1,4-5.6,6.1-9.7,6.3c-4.1,0.2-8.2-1-12.3-1.2c-5.1-0.3-10.3,0.8-15.4,0.5
				c-3.3-0.2-7.1-1.4-8-4.6c-1-3.2,1.5-6.4,4.3-8.3"/>
			<path id="XMLID_4201_" class="st47" d="M426.1,101.6c-0.3,1.5-0.6,3.2-0.1,4.7c0.8,2.4,3.8,3.9,6.2,2.9c0.2,1.9,0.3,3.8,0.5,5.7
				c-1.4,0.4-4.3,1.1-5.7,1.5c0.5,1.9,6.3,5.6,7.1,7.3c3.1-1.3,3.3-4.4,6.4-5.8c0.4-0.2,0.2-1,0-1.4c-0.1-0.2-0.3-0.2-0.5-0.3
				c-0.7-0.2-1.4-0.3-2.1-0.5c-0.2-3.3,0-6.6,0.5-9.9c1.6-0.2,3.2-1.5,3.1-3.1c-0.1-1.6-2.4-2.7-3.4-1.5c-0.8-1.6,0.5-3.8-0.6-5.3
				c-0.5-0.6-1.2-0.9-2-1.1c-2-0.5-6.7-1.6-8.3,0.3C426.2,96.1,426.3,100.4,426.1,101.6z"/>
			<path id="XMLID_4200_" class="st18" d="M428,98.3c-3-0.1-6.5-1.4-7.2-4.3c-0.4-1.8,0.5-3.8,2.1-4.6c1.6-0.8,3.8-0.5,5,0.9
				c0.2,0.3,0.4,0.5,0.8,0.7c1.1,0.6,2.2-0.8,3-1.7c1.5-1.5,4.1-1.9,6-0.7s2.8,3.6,2.1,5.6c1.1-1.7,3.4-2.6,5.3-1.8
				c1.8,0.8,2.6,3.6,1.1,5c1.3-0.7,3.1,0.1,3.9,1.4c0.8,1.3,0.8,2.9,0.6,4.4c-0.2,1.5-0.7,2.9-1.8,3.9c-1.4,1.3-3.6,1.6-5.4,1.2
				c-1.9-0.4-3.6-1.4-5.2-2.4c1.7-0.4,3.2-1.8,3.8-3.4c-0.1-0.6-0.9-0.8-1.4-0.6c-4,1.2-3-3.3-5.2-4.1
				C433.4,96.9,430.2,98.3,428,98.3z"/>
			<polygon id="XMLID_4199_" class="st47" points="421.6,146.7 421.3,153.6 442.7,154.8 443.5,152.2 442.4,145.5 			"/>
			<path id="XMLID_4198_" class="st47" d="M448.4,150.4c4.6-6.4,6.9-14.9,4.1-22.2c-0.4-1-1.1-2.2-1-3.1c0.1-1,0.8-2,1.4-2.8
				c0.8-1.2-1.4-1.2-0.4-2.3c1.8,3.1,5.9,5.6,6.5,9.1c0.8,4.8,1.3,9.9-0.4,14.5c-0.9,2.5-2.3,4.7-3.9,6.8
				c-5.3,7-12.1,12.7-19.8,16.8c-1,0.5-2,1.1-2.4,2.2c-0.2,0.6-0.1,1.2,0,1.8c0.2,2,0.2,4-0.2,5.9c-0.2,1-1,2.3-1.9,1.9
				c-0.4-3.5-0.5-7.1-0.2-10.6c0.3-3.1,2.1-3.5,4.5-5.2C439.8,159.6,444.7,155.5,448.4,150.4z"/>
			<path id="XMLID_4197_" class="st47" d="M428.9,179.9c1-1,1-7.6,0.6-11.4c-0.1-0.5-0.1-1-0.3-1.4c-0.2-0.5-0.6-0.9-0.9-1.3
				c-3-3.3-5.7-6.8-8.3-10.4c-2.4-3.3-4.6-6.8-5.9-10.7c-1.3-3.9-1.6-8.2,0-12c0.7-1.7,3.3-5,3.6-6.8c0.5-2.7,0.4-3.3-1.1-5.8
				c-1.1-2-3-2.7-3.6-2.1c-4.6,4.8-7.1,12.3-7.7,18.7c-0.1,1.4-0.2,2.8,0.1,4.2c0.3,1.6,1.1,3.1,2,4.5c3.5,6,7.8,11.6,12.8,16.5
				c1.6,1.6,4.7,5.1,6.4,6.7C427.1,169.1,426.1,178.8,428.9,179.9"/>
			<path id="XMLID_4196_" class="st48" d="M431.6,171.1l1.3,79.6l11.6-0.6l-8.1-4.3c0,0,11.4-59.5,11.7-80.6c0.1-6.1-4.4-13-4.4-13
				l-11.6,1.2L431.6,171.1z"/>
			<path id="XMLID_4195_" class="st47" d="M432.6,231.5c-0.5,0.8,0.3,19.2,0.3,19.2l11.6-0.6l-8.1-4.3l2.5-13.5L432.6,231.5z"/>
			<path id="XMLID_4194_" class="st48" d="M431.4,171.1l1.1,60.4l-8.4,0.8l2.5,13.5c0,0-11.4-59.5-11.7-80.6c-0.1-6.1,4.4-13,4.4-13
				l11.6,1.2L431.4,171.1z"/>
			<path id="XMLID_4193_" class="st47" d="M430.4,231.5c0.5,0.8-0.3,19.2-0.3,19.2l-11.6-0.6l8.1-4.3l-2.5-13.5L430.4,231.5z"/>
			<path id="XMLID_4192_" class="st49" d="M433.9,120.9c-3.7,0.1-3.8-4.1-5.6-4.9c-1.6,0-4.1,1.7-6.5,0.8"/>
			<path id="XMLID_4191_" class="st2" d="M413.8,117.3c-0.6,0-1.2,0.3-1.5,0.7c-1.5,1.9-1.3,1-3.5,4.1c-0.3,0.4-1,1.7-0.9,2.2
				c0.1,0.4,2-0.2,2.3,0c0.9,0.8,2,1.5,3.2,1.8c0.9,0.3,2.1,0.4,2.5,1.3c0.2,0.3,0.2,0.7,0.2,1.1c0.6,6.7-2.8,62.5-2.3,69.3
				c10.1,0.3,20.3,0.1,30.4-0.6c0.5,0,1-0.1,1.3-0.5c0.2-0.3,0.3-0.7,0.3-1.1c0.2-2.9,4.3-54.9,4.5-57.9c0.1-1.4,0.2-2.8,0.7-4.1
				c0.4-1.1,1.1-2,1.8-2.9c2.1-2.7,3.8-1.9,5.9-4.7c-1.7-1.4-2.8-2.8-3.7-4.4c-0.9-1.5-2.3-2.7-4-3.2c-0.8-0.3-1.8-0.7-3-0.4
				c-2.8,0.6-5.5-1.7-8.4-2c-0.9,1.8-3.4,5.5-5.7,4.9c-2-0.5-3.8-4.1-5.6-4.9c-1.6,0-4.1,1.7-6.5,0.8
				C420.9,116.5,415.8,117.3,413.8,117.3z"/>
			<path id="XMLID_4190_" class="st48" d="M428.2,116l5.6,16.7l-3.7,65.1l2.3-0.1l1.6-74l6.4-5.8C440.4,118,429.1,123.7,428.2,116z"
				/>
			<path id="XMLID_4189_" class="st27" d="M432.1,244.3l3.7,1.5c0,0,13.5,3.4,10,4.9s-10.6,0-10.6,0l-0.4,2h-2L432.1,244.3z"/>
			<path id="XMLID_4188_" class="st27" d="M431,244.3l-3.7,1.5c0,0-13.5,3.4-10,4.9s10.6,0,10.6,0l0.4,2h2L431,244.3z"/>
			<path id="XMLID_4187_" class="st50" d="M425.9,106.3c0,0-5,0.9,2.8,18.4l-1,14.9l1.8-14.6c0,0,17.9-13.1,9.3-21.5"/>
			<ellipse id="XMLID_4186_" class="st51" cx="427.9" cy="140.4" rx="2.2" ry="2.4"/>
		</g>
		<polyline id="XMLID_45633_" class="st31" points="493.9,113.4 488.9,103 499.3,98 508.2,91.3 515.8,110.6 508.2,114.6 
			502.5,120.2 		"/>
		<path id="XMLID_3578_" class="st52" d="M543.1,124l3.2,2.8c0,0-0.3,0.6-0.8,1.7c-4.3-1.5-6.2-4.2-7-7
			C541.3,122.3,543.1,124,543.1,124z"/>
		<path id="XMLID_3577_" class="st52" d="M545.5,128.5c0.6,0.2,1.3,0.4,1.9,0.6c0,0-1.9,2.1-3.7,5.4
			C544.3,131.8,545,129.8,545.5,128.5z"/>
		<path id="XMLID_3576_" class="st31" d="M545.5,128.5c-0.5,1.3-1.2,3.3-1.7,6c-2.4,4.5-4.4,11.1-0.5,17.3c0.1,0.9,0.2,1.8,0.3,2.7
			v0c-5.2,8-15,7.5-16.8,7.4c0.1-1.8,0.2-3.3,0.2-3.8h-0.3c3.9-2.2,9.2-8.1,13.4-23.3c0,0-3.2-11-10.6-3.5c0,0,0.3,8.9-2.9,12.8
			c-1.3,1.5-2.3,2.8-3.3,3.3c-11.9-10.2-7.1-16.3-2.2-19.3c2.6-1.6,5.2-2.3,5.2-2.3c1.8-1.8,3.5-2.9,5.1-3.6
			c2.7-1.2,5.1-1.1,7.1-0.6C539.3,124.3,541.2,127,545.5,128.5z"/>
		<path id="XMLID_3575_" class="st52" d="M543.8,134.5c-0.8,4.1-1.3,9.8-0.5,17.3C539.4,145.6,541.4,139,543.8,134.5z"/>
		<path id="XMLID_3574_" class="st23" d="M538.1,119.4c0.1,0.7,0.2,1.5,0.4,2.2c-1.9-0.5-4.4-0.6-7.1,0.6c1.9-2.4,0-8.7,0-8.7
			c1.1,0.5,2.3,0.8,3.6,0.8c0.3,0,0.6,0,0.9,0C535.9,115.6,536.8,117.5,538.1,119.4L538.1,119.4z"/>
		<path id="XMLID_3573_" class="st23" d="M536,114.1L536,114.1c-0.3,0-0.6,0-0.9,0c-1.3,0-2.5-0.3-3.6-0.8c-2.9-1.3-4.9-4.2-4.9-7.6
			c0-1.1,0.2-2.2,0.6-3.2c1.1,3.1,4.1,6.3,11.6,6.1C538.7,108.7,536.1,110.8,536,114.1z"/>
		<path id="XMLID_3572_" class="st53" d="M538.1,119.4c-1.3-1.9-2.2-3.8-2.1-5.2v0c0.1-3.4,2.8-5.4,2.8-5.4
			c-7.4,0.2-10.4-3-11.6-6.1c-0.2-0.4-0.3-0.8-0.4-1.2c-0.5-2.2-0.3-4-0.3-4c5.3-30.2,29.1,4.6,29.1,4.6
			c31.7,8.6,29.6,31.6,29.6,31.6c12.5,23.3-23.5,34.4-37.8,22.9c-1.8-1.5-3.2-3-4.2-4.6c-0.8-7.5-0.3-13.2,0.5-17.3
			c1.7-3.3,3.7-5.4,3.7-5.4c-0.7-0.2-1.3-0.3-1.9-0.6c0.5-1.2,0.8-1.7,0.8-1.7l-3.2-2.8c0,0-1.8-1.7-4.6-2.4
			C538.3,120.8,538.1,120.1,538.1,119.4L538.1,119.4z"/>
		<path id="XMLID_3571_" class="st31" d="M543.6,154.6c0.3,2.4,0.8,5,1.4,7.7l-0.1,0.2c-10.2,1.2-17.4,0.8-18.1,0.7
			c0-0.4,0.1-0.8,0.1-1.3C528.6,162.1,538.4,162.5,543.6,154.6z"/>
		<path id="XMLID_3570_" class="st53" d="M526.8,101.4c0.1,0.4,0.2,0.8,0.4,1.2c-0.4,1-0.6,2-0.6,3.2c0,3.4,2,6.3,4.9,7.6
			c0,0,1.9,6.3,0,8.7c-1.6,0.7-3.4,1.8-5.1,3.6c0,0-2.6,0.7-5.2,2.3l-0.2-0.2c-8.3-2.1-4.4-6.1-4.4-6.1s5.6-3.5,2.3-8
			C515.5,109.3,526.8,101.4,526.8,101.4z"/>
		<path id="XMLID_3568_" class="st23" d="M523.3,147.4c1-0.5,2-1.8,3.3-3.3c3.2-3.8,2.9-12.8,2.9-12.8c7.3-7.5,10.6,3.5,10.6,3.5
			c-4.1,15.2-9.5,21-13.4,23.3c-3.2,1.8-5.4,1.2-5.4,1.2c-11.1-0.7-24-36.3-24-36.3s-8.3-8.3,1.3-10.7h1.5c0,0-1.2,5.3,3.3,4.2
			l1.2-0.1c0.4,2.5-1.9,3.8-1.9,3.8c0,7.6,10.4,14.1,14.9,22.1C520.2,147.2,521.8,148.2,523.3,147.4z"/>
		<polygon id="XMLID_45606_" class="st32" points="498.7,98.3 507.4,115.4 515.8,110.6 508.2,91.3 		"/>
		<polyline id="XMLID_26_" class="st31" points="441.8,148.7 436.9,138.3 447.3,133.3 456.1,126.5 463.8,145.9 456.1,149.9 
			450.5,155.4 		"/>
		<polygon id="XMLID_25_" class="st32" points="446.6,133.6 455.4,150.6 463.8,145.9 456.1,126.5 		"/>
		<path id="XMLID_4249_" class="st19" d="M538.4,190.8l-5.5,27.7l1.9,36.5c0,0-15.3,2.2-14.9,0c0.4-2.2,9.2-3.6,9.2-3.6l-2.3-32.8
			l-4.3-29.2L538.4,190.8z"/>
		<path id="XMLID_3569_" class="st19" d="M551.5,190.9l-5.5,29.4l1.9,38.7c0,0-15.3,2.3-14.9,0c0.4-2.3,9.2-3.9,9.2-3.9l-2.3-34.8
			l-4.3-31L551.5,190.9z"/>
		<path id="XMLID_15_" class="st23" d="M526.2,158.4c0,0-9.7,18.1-5.8,40.4h33.6c0,0-0.1-37.7-14.2-41.2L526.2,158.4z"/>
		<path id="XMLID_4184_" class="st42" d="M479.4,125.6c1.3,1.4,2.5,3.2,2.4,5.1c-0.1,2.3-2.2,4.1-4.1,5.5c-6.8,4.9-14,9.2-21.6,12.8
			c-0.9,0.4-2,0.9-3,0.7c-1.1-0.2-1.9-1-2.9-1.4c-1.9-0.7-4.3,0.5-4.8,2.5c-0.5,2,0.8,4.2,2.8,4.7c1.7,0.5,3.5-0.3,5.2-1
			c10.4-4.6,20.9-9.2,29.9-16.2c1.8-1.4,3.5-2.9,4.3-5c0.7-1.7,0.6-3.6,0.5-5.4c-0.2-3.2-0.7-6.5-2.7-9c-1.6-2-6.2-4.2-8.6-2.3
			C473.4,119.2,477.6,123.6,479.4,125.6z"/>
		<path id="XMLID_4156_" class="st44" d="M482.4,123.3c1.2,1.2,2.4,2.4,2.9,4c0.7,2,0.1,4.3-1,6.1c-1.1,1.8-2.8,3.2-4.5,4.4
			c-3.5,2.6-7.4,4.6-11.2,6.7c-3.7,2-7.3,4-11,6c-1,0.5-1.9,1-3,1.3c-2.3,0.6-4.8,0-6.9,1c-0.8,0.4-1.6,1.1-1.7,2
			c-0.1,0.5,0.1,1,0.2,1.5c0.7,2.4,2.1,5.5,4.6,5.2c2.6-0.2,3.4-3.6,5.4-5.2c0.9-0.8,2.1-1.1,3.2-1.5c10.8-3.6,21-9.1,30-16.1
			c2.3-1.8,4.7-3.9,5.7-6.6c1.4-3.9-0.1-8.2-1.9-11.9c-1.7-3.5-3.6-6.8-5.8-9.9c-0.7-1-1.6-2.1-2.8-2.1c-0.7,0-1.3,0.4-1.8,0.8
			c-1.8,1.3-5.9,4.4-6.3,6.7C476.1,118.3,480.7,121.5,482.4,123.3z"/>
	</g>
	<polygon id="XMLID_822_" class="st54" points="368.4,69.6 375.9,75.8 372.3,66.3 	"/>
	<circle id="XMLID_823_" class="st54" cx="372.1" cy="50.9" r="19.1"/>
	<circle id="XMLID_824_" class="st2" cx="364.4" cy="50.9" r="1.5"/>
	<circle id="XMLID_825_" class="st2" cx="372.1" cy="50.9" r="1.5"/>
	<circle id="XMLID_826_" class="st2" cx="379.9" cy="50.9" r="1.5"/>
	<polygon id="XMLID_100_" class="st54" points="412.4,83 416.6,86.5 414.6,81.1 	"/>
	<circle id="XMLID_99_" class="st54" cx="414.5" cy="72.4" r="10.8"/>
	<circle id="XMLID_98_" class="st2" cx="410.1" cy="72.4" r="0.9"/>
	<circle id="XMLID_97_" class="st2" cx="414.5" cy="72.4" r="0.9"/>
	<circle id="XMLID_90_" class="st2" cx="418.9" cy="72.4" r="0.9"/>
	<polygon id="XMLID_80_" class="st14" points="513.2,83.6 520.7,89.8 517.1,80.2 	"/>
	<circle id="XMLID_79_" class="st14" cx="516.9" cy="64.9" r="19.1"/>
	<circle id="XMLID_78_" class="st2" cx="509.2" cy="64.9" r="1.5"/>
	<circle id="XMLID_77_" class="st2" cx="516.9" cy="64.9" r="1.5"/>
	<circle id="XMLID_76_" class="st2" cx="524.7" cy="64.9" r="1.5"/>
	<polygon id="XMLID_52_" class="st14" points="447.6,84.3 453.1,89 450.4,81.8 	"/>
	<circle id="XMLID_51_" class="st14" cx="450.3" cy="70.4" r="14.2"/>
	<circle id="XMLID_48_" class="st2" cx="444.6" cy="70.4" r="1.2"/>
	<circle id="XMLID_47_" class="st2" cx="450.3" cy="70.4" r="1.2"/>
	<circle id="XMLID_46_" class="st2" cx="456.1" cy="70.4" r="1.2"/>
	<polygon id="XMLID_75_" class="st6" points="215.3,89.8 222.7,96 219.2,86.4 	"/>
	<circle id="XMLID_74_" class="st6" cx="219" cy="71" r="19.1"/>
	<circle id="XMLID_73_" class="st2" cx="211.2" cy="71" r="1.5"/>
	<circle id="XMLID_72_" class="st2" cx="219" cy="71" r="1.5"/>
	<circle id="XMLID_71_" class="st2" cx="226.7" cy="71" r="1.5"/>
	<polygon id="XMLID_45_" class="st6" points="266,87.9 271.1,92.1 268.7,85.5 	"/>
	<circle id="XMLID_44_" class="st6" cx="268.6" cy="75.1" r="13"/>
	<circle id="XMLID_43_" class="st2" cx="263.3" cy="75.1" r="1.1"/>
	<circle id="XMLID_42_" class="st2" cx="268.5" cy="75.1" r="1.1"/>
	<circle id="XMLID_41_" class="st2" cx="273.8" cy="75.1" r="1.1"/>
</g>
<g id="XMLID_91_">
	<path id="XMLID_93_" class="st0" d="M308.2,650.9v-7.5c18.5-17.6,21.5-20.9,21.5-25.8c0-3.7-2.1-6.4-6.2-6.4
		c-4.3,0-6.6,2.6-6.6,6.1v1.7h-8.5v-2.2c0-6.8,5.5-12.9,14.5-12.9c9.1,0,15.3,4.6,15.3,13.5c0,10.7-12.5,19-19.2,26.2h18.5v7.3
		H308.2z"/>
	<path id="XMLID_105_" class="st0" d="M359.2,650.9v-7.5c18.5-17.6,21.5-20.9,21.5-25.8c0-3.7-2.1-6.4-6.2-6.4
		c-4.3,0-6.6,2.6-6.6,6.1v1.7h-8.5v-2.2c0-6.8,5.5-12.9,14.5-12.9c9.1,0,15.3,4.6,15.3,13.5c0,10.7-12.5,19-19.2,26.2h18.5v7.3
		H359.2z"/>
	<path id="XMLID_237_" class="st0" d="M414.8,638.8c0.1,3.1,2.7,5.5,5.8,5.5c4.8,0,7.1-2.2,7.1-9.7v-4.3c-2.9,2.2-6.3,3.6-10,3.6
		c-8.1,0-12.3-6.3-12.3-13.8c0-9.5,4.6-16.2,15.2-16.2c10,0,15.6,6.2,15.6,16.1v15.6c0,9.9-5.5,16.1-15.6,16.1
		c-8,0-13.7-4.4-14.3-12.8H414.8z M427.8,620.9c0-7.5-2.3-9.7-7.1-9.7c-4.4,0-6.7,3.2-6.7,8.5c0,5.1,2.8,7.5,6.7,7.5
		c2.7,0,4.9-1.8,7.1-3.8V620.9z"/>
</g>
<text id="XMLID_86_" transform="matrix(1 0 0 1 328.2877 819.4072)" class="st55 st7 st56 st5">136</text>
<text id="XMLID_92_" transform="matrix(1 0 0 1 125.9741 807.4043)" class="st57 st7 st58 st59">111</text>
<g id="XMLID_94_">
	<text id="XMLID_255_" transform="matrix(1 0 0 1 561.0844 807.4034)" class="st57 st7 st58 st59">25</text>
</g>
<g id="XMLID_81_">
	<text id="XMLID_256_" transform="matrix(1 0 0 1 138.3434 678.8824)" class="st16 st7 st17">iguales</text>
</g>
<g id="XMLID_19_">
	<text id="XMLID_244_" transform="matrix(1 0 0 1 137.3193 657.9099)" class="st0 st7 st58 st59">86</text>
</g>
<g id="XMLID_88_">
	<text id="XMLID_245_" transform="matrix(1 0 0 1 562.5746 678.8821)" class="st16 st7 st17">nuevos</text>
</g>
<g id="XMLID_87_">
	<text id="XMLID_246_" transform="matrix(1 0 0 1 572.4288 657.9097)" class="st0 st7 st58 st59">7</text>
</g>
<text id="XMLID_69_" transform="matrix(1 0 0 1 160.3887 536.0204)" class="st2 st7 st60 st13">TODO ESE APORTE SE TRADUJO EN:</text>
<g id="XMLID_1_">
	<g id="XMLID_55_" class="st61">
		<path id="XMLID_56_" class="st14" d="M108.3,1098.4l15.5-62.4h15.3l15,62.4h-11.4l-3-13.1h-16.5l-3.4,13.1H108.3z M125.3,1074.7
			h11.8l-5.8-25.2h-0.2L125.3,1074.7z"/>
		<path id="XMLID_59_" class="st14" d="M205.8,1098.4l-10.4-25.4h-5.7v25.4h-11.9V1036h17.3c14.3,0,21.2,6.9,21.2,18.7
			c0,7.8-2.8,13.4-9.4,15.9l11.7,27.8H205.8z M189.8,1063.2h6.1c5.3,0,8.5-2.6,8.5-8.6c0-6-3.2-8.6-8.5-8.6h-6.1V1063.2z"/>
		<path id="XMLID_62_" class="st14" d="M279.2,1036v10.5h-13.9v51.8h-11.9v-51.8h-13.9V1036H279.2z"/>
		<path id="XMLID_64_" class="st14" d="M324.3,1019.9l-12.7,12.6h-8.7l8-12.6H324.3z M304.3,1098.4V1036h11.9v62.4H304.3z"/>
		<path id="XMLID_111_" class="st14" d="M355.7,1079.9c0,6.9,3,8.8,7.8,8.8c4.7,0,7.8-1.9,7.8-8.8v-4.1h11.9v2.6
			c0,15.4-8.1,20.9-19.7,20.9c-11.6,0-19.7-5.5-19.7-20.9v-22.3c0-15.4,8.1-20.9,19.7-20.9c11.6,0,19.7,5.5,19.7,20.9v0.2h-11.9
			v-1.7c0-6.9-3-8.8-7.8-8.8c-4.8,0-7.8,1.9-7.8,8.8V1079.9z"/>
		<path id="XMLID_113_" class="st14" d="M422.8,1036v43.6c0,6,2.6,9.1,8.4,9.1s8.5-3.1,8.5-9.1V1036h11.9v43.7
			c0,13.7-8.1,19.5-20.4,19.5s-20.3-5.8-20.3-19.5V1036H422.8z"/>
		<path id="XMLID_116_" class="st14" d="M480.2,1098.4V1036h11.9v51.8h19.2v10.5H480.2z"/>
		<path id="XMLID_118_" class="st14" d="M534.8,1056.1c0-15.4,8.1-20.9,19.7-20.9c11.6,0,19.7,5.5,19.7,20.9v22.3
			c0,15.4-8.1,20.9-19.7,20.9c-11.6,0-19.7-5.5-19.7-20.9V1056.1z M546.7,1079.9c0,6.9,3,8.8,7.8,8.8c4.7,0,7.8-1.9,7.8-8.8v-25.4
			c0-6.9-3-8.8-7.8-8.8c-4.8,0-7.8,1.9-7.8,8.8V1079.9z"/>
		<path id="XMLID_121_" class="st14" d="M627.4,1053.4c-2-5.9-4.6-8.4-8.7-8.4c-4.2,0-6.6,2.6-6.6,6.8c0,9.4,26.6,10.1,26.6,29.6
			c0,10.7-7.3,17.8-19.9,17.8c-9.7,0-17.2-5.3-20.4-17.5l11.7-2.5c1.4,7.5,5.7,10.2,9.2,10.2c4.1,0,7.3-2.8,7.3-7.4
			c0-11.7-26.6-11.9-26.6-29.4c0-10.7,6.4-17.4,18.7-17.4c10.6,0,17.1,6.3,19.2,15.1L627.4,1053.4z"/>
	</g>
	<circle id="XMLID_226_" class="st0" cx="528.6" cy="1040.4" r="15.6"/>
	<text id="XMLID_96_" transform="matrix(1 0 0 1 156.1869 992.7555)"><tspan x="0" y="0" class="st14 st7 st62"> RETOMAN FORMULACIONES </tspan><tspan x="-3.8" y="13.2" class="st14 st7 st62">DE LA CONSTITUCIÓN VIGENTE</tspan></text>
	<text id="XMLID_39_" transform="matrix(1 0 0 1 465.8565 990.7555)"><tspan x="0" y="0" class="st14 st7 st62">SOLO QUE SE REFIERAN A </tspan><tspan x="-10.2" y="13.2" class="st14 st7 st62">LA ESCTRUCTURA DEL ESTADO</tspan></text>
	<g id="XMLID_31_">
		<text id="XMLID_247_" transform="matrix(1 0 0 1 206.3631 967.5856)" class="st0 st7 st63 st64">7</text>
	</g>
	<g id="XMLID_53_">
		<text id="XMLID_248_" transform="matrix(1 0 0 1 513.4297 967.5856)" class="st0 st7 st63 st64">5</text>
	</g>
	<g id="XMLID_232_">
		<path id="XMLID_187_" class="st65" d="M517.4,1038h-1.9v-1.4c1.8-0.4,2.1-1,2.7-1.7h1.4v12.6h-2.2V1038z"/>
		<path id="XMLID_189_" class="st65" d="M522.5,1035.1h7.8v1.1l-3.4,11.3h-2.5l3.4-10.4h-5.4V1035.1z"/>
		<path id="XMLID_191_" class="st65" d="M537.5,1035.1h2.4v7.4h1.7v1.8h-1.7v3.3h-2.2v-3.3h-5.4v-2L537.5,1035.1z M537.7,1042.4
			v-4.8h0l-3.5,4.8H537.7z"/>
	</g>
	<circle id="XMLID_50_" class="st0" cx="150.1" cy="1040.4" r="15.6"/>
	<circle id="XMLID_124_" class="st0" cx="198.8" cy="1040.4" r="15.6"/>
	<circle id="XMLID_132_" class="st0" cx="249" cy="1040.4" r="15.6"/>
	<circle id="XMLID_202_" class="st0" cx="299.2" cy="1040.4" r="15.6"/>
	<circle id="XMLID_229_" class="st0" cx="479.9" cy="1040.4" r="15.6"/>
	<circle id="XMLID_207_" class="st0" cx="578.7" cy="1040.4" r="15.6"/>
	<circle id="XMLID_203_" class="st0" cx="500.2" cy="1082.8" r="15.6"/>
	<circle id="XMLID_233_" class="st0" cx="522.4" cy="1082.8" r="15.6"/>
	<circle id="XMLID_7_" class="st0" cx="565.9" cy="1082.8" r="15.6"/>
	<circle id="XMLID_215_" class="st0" cx="175.2" cy="1083.1" r="15.6"/>
	<circle id="XMLID_212_" class="st0" cx="225.4" cy="1083.1" r="15.6"/>
	<circle id="XMLID_205_" class="st0" cx="275.6" cy="1083.1" r="15.6"/>
	<path id="XMLID_125_" class="st65" d="M148.3,1043c-0.1,1.2,0.7,1.8,1.8,1.8c1.5,0,1.9-1,1.9-2.7c0-1.5-0.5-2.4-1.8-2.4
		c-0.8,0-1.4,0.4-1.8,1h-1.9v-6.5h7.2v2h-5.2v2.6c0.7-0.5,1.3-0.8,2.3-0.8c2.6,0,3.6,1.6,3.6,4.2c0,2.9-1.2,4.6-4.2,4.6
		c-3.1,0-4.1-1.9-4.1-3.7H148.3z"/>
	<g id="XMLID_54_">
		<path id="XMLID_127_" class="st65" d="M188.3,1046.5v-2c4.9-4.7,5.7-5.6,5.7-6.9c0-1-0.5-1.7-1.6-1.7c-1.2,0-1.8,0.7-1.8,1.6v0.4
			h-2.3v-0.6c0-1.8,1.5-3.5,3.9-3.5c2.4,0,4.1,1.2,4.1,3.6c0,2.9-3.3,5.1-5.1,7h4.9v2H188.3z"/>
		<path id="XMLID_129_" class="st65" d="M203.5,1042.9c0,1.3,0.6,1.9,1.8,1.9c1.2,0,1.8-0.8,1.8-1.8c0-1.4-0.8-1.9-2.5-1.9v-2
			c1.6,0,2.2-0.4,2.2-1.6c0-0.9-0.6-1.5-1.6-1.5c-0.8,0-1.5,0.6-1.5,1.4h-2.3c0-2.3,1.7-3.4,3.8-3.4c2.2,0,3.8,1.2,3.8,3.4
			c0,1.1-0.5,2.2-1.5,2.7c1.3,0.5,1.8,1.6,1.8,3c0,2.5-1.8,3.7-4,3.7c-2.8,0-4.1-1.5-4.1-3.8H203.5z"/>
	</g>
	<g id="XMLID_123_">
		<path id="XMLID_131_" class="st65" d="M244.1,1037.5c0-0.8-0.7-1.5-1.6-1.5c-1.3,0-1.9,0.6-1.9,2.6v1.2c0.8-0.6,1.7-1,2.7-1
			c2.2,0,3.3,1.7,3.3,3.7c0,2.5-1.2,4.3-4.1,4.3c-2.7,0-4.2-1.6-4.2-4.3v-4.2c0-2.6,1.5-4.3,4.2-4.3c2.1,0,3.7,1.2,3.8,3.4H244.1z
			 M240.7,1042.2c0,2,0.6,2.6,1.9,2.6c1.2,0,1.8-0.9,1.8-2.3c0-1.4-0.7-2-1.8-2c-0.7,0-1.3,0.5-1.9,1V1042.2z"/>
		<path id="XMLID_136_" class="st65" d="M256,1034.2h2.4v7.4h1.7v1.8h-1.7v3.3h-2.2v-3.3h-5.4v-2L256,1034.2z M256.2,1041.6v-4.8h0
			l-3.5,4.8H256.2z"/>
	</g>
	<path id="XMLID_139_" class="st65" d="M292.8,1048c-2.4,0-4.2-1.2-4.2-3.7c0-1.4,0.5-2.5,1.8-3c-1-0.5-1.5-1.6-1.5-2.7
		c0-2.3,1.7-3.4,3.8-3.4c2.1,0,3.8,1.1,3.8,3.4c0,1.1-0.5,2.2-1.5,2.7c1.3,0.5,1.8,1.6,1.8,3C296.9,1046.7,295.1,1048,292.8,1048z
		 M292.8,1042.3c-1.2,0-1.9,0.8-1.9,1.9c0,1.1,0.5,1.8,1.9,1.8c1.4,0,1.9-0.7,1.9-1.8C294.6,1043.1,293.9,1042.3,292.8,1042.3z
		 M292.8,1037.2c-0.9,0-1.6,0.7-1.6,1.6s0.7,1.6,1.6,1.6s1.6-0.7,1.6-1.6S293.7,1037.2,292.8,1037.2z"/>
	<path id="XMLID_144_" class="st65" d="M303.8,1044.2c0,1.3,0.6,1.9,1.8,1.9c1.2,0,1.8-0.8,1.8-1.8c0-1.4-0.8-1.9-2.5-1.9v-2
		c1.6,0,2.2-0.4,2.2-1.6c0-0.9-0.6-1.5-1.6-1.5c-0.8,0-1.5,0.6-1.5,1.4h-2.3c0-2.3,1.7-3.4,3.8-3.4c2.2,0,3.8,1.2,3.8,3.4
		c0,1.1-0.5,2.2-1.5,2.7c1.3,0.5,1.8,1.6,1.8,3c0,2.5-1.8,3.7-4,3.7c-2.8,0-4.1-1.5-4.1-3.8H303.8z"/>
	<path id="XMLID_146_" class="st65" d="M168.9,1089.5c-2.4,0-4.2-1.2-4.2-3.7c0-1.4,0.5-2.5,1.8-3c-1-0.5-1.5-1.6-1.5-2.7
		c0-2.3,1.7-3.4,3.8-3.4c2.1,0,3.8,1.1,3.8,3.4c0,1.1-0.5,2.2-1.5,2.7c1.3,0.5,1.8,1.6,1.8,3C173,1088.3,171.2,1089.5,168.9,1089.5z
		 M168.9,1083.8c-1.2,0-1.9,0.8-1.9,1.9c0,1.1,0.5,1.8,1.9,1.8s1.9-0.7,1.9-1.8C170.8,1084.6,170,1083.8,168.9,1083.8z
		 M168.9,1078.7c-0.9,0-1.6,0.7-1.6,1.6s0.7,1.6,1.6,1.6s1.6-0.7,1.6-1.6S169.8,1078.7,168.9,1078.7z"/>
	<path id="XMLID_150_" class="st65" d="M177.8,1089.3v-2c4.9-4.7,5.7-5.6,5.7-6.9c0-1-0.5-1.7-1.6-1.7c-1.2,0-1.8,0.7-1.8,1.6v0.4
		h-2.3v-0.6c0-1.8,1.5-3.5,3.9-3.5c2.4,0,4.1,1.2,4.1,3.6c0,2.9-3.3,5.1-5.1,7h4.9v2H177.8z"/>
	<path id="XMLID_152_" class="st65" d="M214.8,1089.3v-2c4.9-4.7,5.7-5.6,5.7-6.9c0-1-0.5-1.7-1.6-1.7c-1.2,0-1.8,0.7-1.8,1.6v0.4
		h-2.3v-0.6c0-1.8,1.5-3.5,3.9-3.5c2.4,0,4.1,1.2,4.1,3.6c0,2.9-3.3,5.1-5.1,7h4.9v2H214.8z"/>
	<path id="XMLID_154_" class="st65" d="M227.7,1081c0-2.6,1.5-4.3,4.2-4.3s4.2,1.6,4.2,4.3v4.2c0,2.6-1.5,4.3-4.2,4.3
		s-4.2-1.6-4.2-4.3V1081z M230,1084.9c0,2,0.6,2.6,1.9,2.6c1.3,0,1.9-0.6,1.9-2.6v-3.6c0-2-0.6-2.6-1.9-2.6c-1.3,0-1.9,0.6-1.9,2.6
		V1084.9z"/>
	<g id="XMLID_134_">
		<path id="XMLID_157_" class="st65" d="M267.6,1081.6h-1.9v-1.4c1.8-0.4,2.1-1,2.7-1.7h1.4v12.6h-2.2V1081.6z"/>
		<path id="XMLID_159_" class="st65" d="M277.1,1078.7h7.8v1.1l-3.4,11.3h-2.5l3.4-10.4h-5.4V1078.7z"/>
	</g>
	<g id="XMLID_161_">
		<path id="XMLID_162_" class="st65" d="M469.6,1037.8h-1.9v-1.4c1.8-0.4,2.1-1,2.7-1.7h1.4v12.6h-2.2V1037.8z"/>
		<path id="XMLID_164_" class="st65" d="M475.9,1039c0-2.6,1.5-4.3,4.2-4.3s4.2,1.6,4.2,4.3v4.2c0,2.6-1.5,4.3-4.2,4.3
			s-4.2-1.6-4.2-4.3V1039z M478.1,1042.9c0,2,0.6,2.6,1.9,2.6c1.3,0,1.9-0.6,1.9-2.6v-3.6c0-2-0.6-2.6-1.9-2.6
			c-1.3,0-1.9,0.6-1.9,2.6V1042.9z"/>
		<path id="XMLID_167_" class="st65" d="M488.2,1037.8h-1.9v-1.4c1.8-0.4,2.1-1,2.7-1.7h1.4v12.6h-2.2V1037.8z"/>
	</g>
	<g id="XMLID_236_">
		<path id="XMLID_194_" class="st65" d="M567.8,1037.8h-1.9v-1.4c1.8-0.4,2.1-1,2.7-1.7h1.4v12.6h-2.2V1037.8z"/>
		<path id="XMLID_196_" class="st65" d="M573.9,1047.3v-2c4.9-4.7,5.7-5.6,5.7-6.9c0-1-0.5-1.7-1.6-1.7c-1.2,0-1.8,0.7-1.8,1.6v0.4
			H574v-0.6c0-1.8,1.5-3.5,3.9-3.5c2.4,0,4.1,1.2,4.1,3.6c0,2.9-3.3,5.1-5.1,7h4.9v2H573.9z"/>
		<path id="XMLID_198_" class="st65" d="M586.8,1044c0,0.8,0.7,1.5,1.6,1.5c1.3,0,1.9-0.6,1.9-2.6v-1.2c-0.8,0.6-1.7,1-2.7,1
			c-2.2,0-3.3-1.7-3.3-3.7c0-2.5,1.2-4.3,4.1-4.3c2.7,0,4.2,1.6,4.2,4.3v4.2c0,2.6-1.5,4.3-4.2,4.3c-2.1,0-3.7-1.2-3.8-3.4H586.8z
			 M590.2,1039.3c0-2-0.6-2.6-1.9-2.6c-1.2,0-1.8,0.9-1.8,2.3c0,1.4,0.7,2,1.8,2c0.7,0,1.3-0.5,1.9-1V1039.3z"/>
	</g>
	<g id="XMLID_4_">
		<text id="XMLID_250_" transform="matrix(1 0 0 1 486.7606 1088.9781)" class="st2 st7 st66">128-175</text>
	</g>
	<g id="XMLID_11_">
		<text id="XMLID_252_" transform="matrix(1 0 0 1 551.2411 1089.2203)" class="st2 st7 st67">180</text>
	</g>
</g>
</svg>
